<svg width="222" height="32" viewBox="0 0 222 32" fill="none" xmlns="http://www.w3.org/2000/svg">
<path d="M37.4167 15.654C37.4167 7.91912 41.2565 3.60797 47.2949 3.60797C51.398 3.60797 54.0559 5.35208 55.6635 8.90786L51.9553 10.8823C51.3 8.8403 49.8548 7.45853 47.2949 7.45853C44.0797 7.45853 42.0098 9.79526 42.0098 13.7103V17.3306C42.0098 21.2794 44.0767 23.5178 47.2949 23.5178C49.8884 23.5178 51.496 21.9395 52.2493 19.8638L55.7614 21.9365C54.1202 25.3602 51.398 27.3653 47.2949 27.3653C41.2565 27.3653 37.4167 23.3827 37.4167 15.6479V15.654Z" fill="white"/>
<path d="M64.6322 26.9754H60.2994V4.00408H70.6369C74.8043 4.00408 77.3979 6.76764 77.3979 11.1126C77.3979 14.2722 75.9526 16.6734 73.1324 17.6284L77.8266 26.9754H73.0008L68.7353 18.1228H64.6322V26.9754ZM70.2113 14.4687C71.8862 14.4687 72.9028 13.5476 72.9028 11.8679V10.3541C72.9028 8.67449 71.8862 7.78708 70.2113 7.78708H64.6322V14.4687H70.2113Z" fill="white"/>
<path d="M81.8072 15.4913C81.8072 7.72567 85.7787 3.61104 91.7834 3.61104C97.788 3.61104 101.76 7.72567 101.76 15.4913C101.76 23.2568 97.8217 27.3715 91.7834 27.3715C85.745 27.3715 81.8072 23.2568 81.8072 15.4913ZM97.1665 17.2691V13.7134C97.1665 9.79834 95.0659 7.4616 91.7834 7.4616C88.5009 7.4616 86.4003 9.79834 86.4003 13.7134V17.2691C86.4003 21.1842 88.5009 23.5209 91.7834 23.5209C95.0659 23.5209 97.1665 21.1842 97.1665 17.2691Z" fill="white"/>
<path d="M107.127 26.9754V4.00408H117.431C121.666 4.00408 124.226 6.8659 124.226 11.1126C124.226 15.3592 121.666 18.221 117.431 18.221H111.457V26.9754H107.124H107.127ZM111.46 14.4687H117.039C118.714 14.4687 119.731 13.5476 119.731 11.8679V10.3541C119.731 8.67449 118.714 7.78708 117.039 7.78708H111.46V14.4687Z" fill="white"/>
<path d="M138.639 7.85463V26.9754H134.306V7.85463H127.808V4.00408H145.136V7.85463H138.639Z" fill="white"/>
<path d="M153.912 26.9754H149.58V4.00408H159.917C164.084 4.00408 166.678 6.76764 166.678 11.1126C166.678 14.2722 165.233 16.6734 162.413 17.6284L167.107 26.9754H162.281L158.015 18.1228H153.912V26.9754ZM159.491 14.4687C161.166 14.4687 162.183 13.5476 162.183 11.8679V10.3541C162.183 8.67449 161.166 7.78708 159.491 7.78708H153.912V14.4687H159.491Z" fill="white"/>
<path d="M187.172 26.9754L185.335 21.1166H177.196L175.393 26.9754H170.995L178.675 4.00408H184.058L191.673 26.9754H187.172ZM181.33 7.95289H181.165L178.243 17.3981H184.282L181.327 7.95289H181.33Z" fill="white"/>
<path d="M203.441 16.5752L200.388 20.1954V26.9754H196.055V4.00408H200.388V15.3254H200.553L203.802 11.0143L209.479 4.00408H214.467L206.491 13.5813L215.123 26.9754H209.969L203.438 16.5752H203.441Z" fill="white"/>
<path d="M215.956 7.16068C215.968 6.3009 216.265 5.58545 216.85 5.00817C217.413 4.43397 218.123 4.13919 218.978 4.12998C219.835 4.14226 220.552 4.43397 221.121 5.00817C221.694 5.58238 221.988 6.3009 222 7.16068C221.988 8.02045 221.697 8.72976 221.121 9.29475C220.552 9.88124 219.835 10.1791 218.978 10.1914C218.12 10.1791 217.41 9.88124 216.85 9.29475C216.265 8.72976 215.968 8.01738 215.956 7.16068ZM216.608 7.16068C216.614 7.87613 216.84 8.4534 217.288 8.89557C217.722 9.3531 218.286 9.58646 218.978 9.58953C219.673 9.58339 220.242 9.3531 220.683 8.89557C221.124 8.4534 221.348 7.87613 221.351 7.16068C221.345 6.43601 221.121 5.85259 220.683 5.41042C220.242 4.96211 219.676 4.73796 218.978 4.73182C218.286 4.73796 217.725 4.96211 217.288 5.41042C216.837 5.85259 216.611 6.43601 216.608 7.16068ZM217.836 5.30909H219.171C219.979 5.30295 220.383 5.65607 220.383 6.36539C220.377 6.71237 220.291 6.96416 220.126 7.12076C219.951 7.27736 219.737 7.36641 219.48 7.39404L220.49 8.84644H219.789L218.779 7.4094H218.436V8.84644H217.836V5.30909ZM218.436 6.85976H218.852C219.106 6.8659 219.324 6.84133 219.504 6.78606C219.685 6.72465 219.777 6.5834 219.783 6.36539C219.777 6.15965 219.697 6.02455 219.538 5.95699C219.382 5.89865 219.198 5.86795 218.987 5.86795H218.436V6.86283V6.85976Z" fill="white"/>
<path d="M23.5793 4.23438C21.69 1.57216 18.7045 0.0276355 15.373 0C12.2467 0 9.34693 1.42169 7.41478 3.90275C5.51937 6.33775 4.85491 9.436 5.59592 12.4084C6.76256 17.0972 10.0941 20.177 13.0367 22.8945L13.2051 23.048C13.5603 23.3797 14.335 23.9723 14.8433 24.3531C15.1373 24.5741 15.5353 24.5833 15.8385 24.3776C16.3529 24.0276 17.149 23.4656 17.6757 22.9774C20.3887 20.4626 23.466 17.61 24.896 13.3756C25.9555 10.2405 25.4747 6.90889 23.5793 4.23438ZM17.7124 12.9856C17.0296 13.6458 16.1447 13.9928 15.2873 13.9774C13.4654 13.913 11.9037 12.2763 11.9435 10.4739C11.9864 8.65914 13.5726 7.08391 15.3516 7.08391C15.3639 7.08391 15.3792 7.08391 15.3914 7.08391C17.2072 7.10847 18.8025 8.71441 18.8025 10.5261C18.8025 11.4165 18.4045 12.3101 17.7124 12.9826V12.9856Z" fill="white"/>
<path d="M26.0902 21.8413C24.2285 22.2681 22.1218 22.9866 20.3366 24.2087C16.7755 26.6437 15.1985 30.2548 14.7514 31.4615C14.6718 31.6795 14.8127 31.9129 15.0423 31.9405C15.7895 32.0265 17.4889 32.1002 20.0427 31.5168C20.7776 31.3479 21.5798 31.1268 22.4525 30.8351C22.4617 30.8321 22.4739 30.829 22.4831 30.8228C28.4755 28.3019 30.3342 23.2538 30.7782 21.697C30.8456 21.4636 30.6618 21.2333 30.4169 21.2456C29.6391 21.2824 27.9948 21.4083 26.0902 21.8444V21.8413Z" fill="white"/>
<path d="M4.64669 21.8413C2.90132 21.4421 1.37336 21.3039 0.531298 21.2548C0.182224 21.2333 -0.081112 21.5711 0.0229976 21.9058C0.561918 23.6622 2.50632 28.4032 8.24766 30.8228C8.26297 30.829 8.27522 30.8351 8.29053 30.8382C9.16015 31.1299 9.9624 31.351 10.6942 31.5168C13.0398 32.0542 14.6657 32.0357 15.4925 31.962C15.8262 31.9313 16.0375 31.5905 15.915 31.2773C15.3853 29.917 13.793 26.5301 10.4003 24.2118C8.6151 22.9897 6.50535 22.2712 4.64669 21.8444V21.8413Z" fill="white"/>
</svg>
